<svg xmlns="http://www.w3.org/2000/svg" width="1440" height="810" fill="none" viewBox="0 0 1440 810">
  <g opacity=".5">
    <path stroke="#F8E1CC" stroke-linecap="round" stroke-linejoin="round" stroke-width="77.128" d="M2.582 111.448 205.255-30.415l-63.58 531.168L498.231 3.703l-65.456 627.303L781.787 93.669l-63.228 624.754 333.031-507.45-43.85 574.234 337.33-457.941-64.9 445.45 271.99-176.877" opacity=".25"/>
  </g>
  <g opacity=".15">
    <path stroke="#1E1E1E" stroke-miterlimit="10" stroke-width=".301" d="M719.041 348.36c137.149-4.574 246.931-50.224 245.205-101.962-1.725-51.738-114.304-89.972-251.453-85.398-137.148 4.573-246.93 50.223-245.205 101.961 1.725 51.738 114.305 89.972 251.453 85.399Z"/>
    <path stroke="#1E1E1E" stroke-miterlimit="10" stroke-width=".301" d="M1022.76 259.066c2.39-81.009-134.924-150.788-306.7-155.856-171.776-5.068-312.966 56.494-315.356 137.503-2.39 81.008 134.925 150.788 306.701 155.856 171.776 5.068 312.965-56.494 315.355-137.503Z"/>
    <path stroke="#1E1E1E" stroke-miterlimit="10" stroke-width=".301" d="M737.733 434.715c210.892-27.203 372.297-123.336 360.507-214.719-11.78-91.382-192.301-143.41-403.193-116.208-210.891 27.203-372.297 123.336-360.51 214.719 11.788 91.383 192.305 143.411 403.196 116.208Z"/>
  </g>
  <path fill="#1E1E1E" d="M396.365 116.958s10.36-.197 10.56-10.56c0 0-.196 10.359 10.164 10.56 0 0-10.36-.197-10.36 10.163 0 0 0-10.36-10.36-10.163h-.004ZM270.833 222.612s8.335-.16 8.495-8.495c0 0-.16 8.335 8.174 8.495 0 0-8.334-.16-8.334 8.174 0 0 0-8.334-8.335-8.174Zm151.608 121.199s5.182-.1 5.278-5.278c0 0-.1 5.182 5.081 5.278 0 0-5.181-.1-5.181 5.082 0 0 0-5.182-5.182-5.082h.004Zm720.279-215.316s5.19-.101 5.28-5.279c0 0-.1 5.182 5.08 5.279 0 0-5.18-.101-5.18 5.081 0 0 0-5.182-5.18-5.081Zm-332.328-1.252s6.453-.124 6.578-6.577c0 0-.125 6.453 6.333 6.577 0 0-6.454-.124-6.454 6.333 0 0 0-6.453-6.453-6.333h-.004ZM341.596 438.997s8.014-.152 8.166-8.166c0 0-.152 8.014 7.862 8.166 0 0-8.014-.152-8.014 7.861 0 0 0-8.013-8.014-7.861Zm546.568-67.934s6.453-.125 6.578-6.578c0 0-.125 6.453 6.333 6.578 0 0-6.454-.125-6.454 6.333 0 0 0-6.454-6.453-6.333h-.004Zm190.236 47.25s6.45-.124 6.58-6.577c0 0-.13 6.453 6.33 6.577 0 0-6.46-.124-6.46 6.333 0 0 0-6.453-6.45-6.333Zm-20.73-168.225s10.36-.197 10.56-10.56c0 0-.19 10.359 10.17 10.56 0 0-10.36-.197-10.36 10.163 0 0 0-10.36-10.36-10.163h-.01Z"/>
</svg>
