<?xml version="1.0" encoding="utf-8"?>
<!-- Generator: Adobe Illustrator 27.0.1, SVG Export Plug-In . SVG Version: 6.00 Build 0)  -->
<svg version="1.1" id="Layer_1" xmlns="http://www.w3.org/2000/svg" xmlns:xlink="http://www.w3.org/1999/xlink" x="0px" y="0px"
	 viewBox="0 0 390 1264" style="enable-background:new 0 0 390 1264;" xml:space="preserve">
<style type="text/css">
	.st0{clip-path:url(#SVGID_00000101825960631526910640000008194665304871033519_);}
	.st1{opacity:0.5;}
	
		.st2{opacity:0.25;fill:none;stroke:#F8E1CC;stroke-width:42.1111;stroke-linecap:round;stroke-linejoin:round;enable-background:new    ;}
	.st3{opacity:0.15;}
	.st4{fill:none;stroke:#1E1E1E;stroke-width:0.2331;stroke-miterlimit:10;}
	.st5{fill:#1E1E1E;}
</style>
<g>
	<defs>
		<rect id="SVGID_1_" width="390" height="1264"/>
	</defs>
	<clipPath id="SVGID_00000109017545419602554810000001504054457395738550_">
		<use xlink:href="#SVGID_1_"  style="overflow:visible;"/>
	</clipPath>
	<g style="clip-path:url(#SVGID_00000109017545419602554810000001504054457395738550_);">
		<g class="st1">
			<path class="st2" d="M-182.8,166.8l110.7-77.5l-34.7,290L87.9,108L52.1,450.5l190.6-293.4l-34.5,341.1L390,221.1L366,534.7
				l184.2-250l-35.4,243.2l148.5-96.6"/>
		</g>
		<g class="st3">
			<path class="st4" d="M196.6,373.2c106.1,7.2,194.3-19.4,197-59.4c2.7-40-81.1-78.3-187.2-85.5c-106.1-7.2-194.3,19.4-197,59.4
				C6.7,327.7,90.5,366,196.6,373.2z"/>
			<path class="st4" d="M437.7,328.1c8.2-62.3-92.2-126.8-224.2-144.1C81.4,166.6-32.2,203-40.4,265.3
				c-8.2,62.3,92.2,126.8,224.2,144.1C315.9,426.8,429.5,390.4,437.7,328.1z"/>
			<path class="st4" d="M204.2,441.2c164.7-4.5,296.6-66,294.7-137.3c-1.9-71.4-137-125.6-301.7-121.1
				c-164.7,4.5-296.6,66-294.7,137.3S39.5,445.7,204.2,441.2z"/>
		</g>
		<path class="st5" d="M56.7,174.6c0,0,8.8-0.2,9-9c0,0-0.2,8.8,8.7,9c0,0-8.8-0.2-8.8,8.7C65.6,183.2,65.6,174.4,56.7,174.6
			L56.7,174.6z"/>
		<path class="st5" d="M11.6,229.8c0,0,3.7-0.1,3.7-3.7c0,0-0.1,3.7,3.6,3.7c0,0-3.7-0.1-3.7,3.6C15.2,233.4,15.2,229.7,11.6,229.8z
			"/>
		<path class="st5" d="M65.2,411.6c0,0,6.4-0.1,6.5-6.5c0,0-0.1,6.4,6.3,6.5c0,0-6.4-0.1-6.4,6.3C71.6,417.9,71.6,411.5,65.2,411.6
			L65.2,411.6z"/>
		<path class="st5" d="M346.2,184.7c0,0,6-0.1,6.1-6.1c0,0-0.1,6,5.8,6.1c0,0-6-0.1-6,5.8C352.2,190.6,352.2,184.6,346.2,184.7
			L346.2,184.7z"/>
		<path class="st5" d="M248,148.3c0,0,11.1-0.2,11.3-11.3c0,0-0.2,11.1,10.9,11.3c0,0-11.1-0.2-11.1,10.9
			C259.1,159.2,259.1,148,248,148.3L248,148.3z"/>
		<path class="st5" d="M31.9,334.5c0,0,3.5-0.1,3.6-3.6c0,0-0.1,3.5,3.4,3.6c0,0-3.5-0.1-3.5,3.4C35.4,338,35.4,334.5,31.9,334.5z"
			/>
		<path class="st5" d="M234.5,394.4c0,0,5.7-0.1,5.8-5.8c0,0-0.1,5.7,5.6,5.8c0,0-5.7-0.1-5.7,5.6
			C240.2,400,240.2,394.3,234.5,394.4L234.5,394.4z"/>
		<path class="st5" d="M358.5,328.2c0,0,6.5-0.1,6.6-6.6c0,0-0.1,6.5,6.4,6.6c0,0-6.5-0.1-6.5,6.4
			C364.9,334.6,364.9,328.1,358.5,328.2L358.5,328.2z"/>
		<path class="st5" d="M312,448.1c0,0,5.7-0.1,5.8-5.8c0,0-0.1,5.7,5.6,5.8c0,0-5.7-0.1-5.7,5.6C317.7,453.7,317.7,448,312,448.1
			L312,448.1z"/>
		<path class="st5" d="M163.8,210.7c0,0,4.5-0.1,4.6-4.6c0,0-0.1,4.5,4.5,4.6c0,0-4.5-0.1-4.5,4.5
			C168.3,215.1,168.3,210.6,163.8,210.7L163.8,210.7z"/>
	</g>
</g>
</svg>
