<svg width="1019" height="298" viewBox="0 0 1019 298" fill="none" xmlns="http://www.w3.org/2000/svg">
<g opacity="0.4">
<path d="M1969.54 906.67C1993.44 712.46 1761.85 523.044 1563.3 472.403C1334.48 414.069 1204.82 554.149 1044.55 458.03C898.274 370.371 931.557 208.828 821.831 152.563C720.989 100.859 525.889 151.641 119.294 552.833" stroke="#E0E0E0" stroke-opacity="0.05" stroke-width="2.38825" stroke-miterlimit="10"/>
<path d="M126.946 577.489C528.307 182.269 724.499 127.798 828.001 175.645C904.683 211.216 914.989 296.75 961.749 373.981C984.835 413.473 1017.36 446.611 1056.42 470.42C1184.31 548.516 1291.33 480.189 1450.11 481.123C1490.61 481.247 1530.96 486.132 1570.32 495.678C1770.48 543.531 2003.38 716.333 1985.37 904.818" stroke="#E0E0E0" stroke-opacity="0.05" stroke-width="2.38825" stroke-miterlimit="10"/>
<path d="M134.649 602.089C530.767 212.873 727.946 154.72 833.874 198.682C911.737 231.004 924.87 313.349 972.582 387.547C996.719 426.122 1029.34 458.675 1067.97 482.724C1193.68 560.962 1298.26 501.606 1457.07 504.487C1497.45 505.139 1537.65 509.972 1577.04 518.908C1778.68 564.595 2013.02 720.129 2000.91 902.889" stroke="#E0E0E0" stroke-opacity="0.05" stroke-width="2.38825" stroke-miterlimit="10"/>
<path d="M142.336 626.616C533.121 243.483 731.374 181.706 839.883 221.721C918.975 250.876 934.824 329.933 983.575 401.155C1008.7 438.778 1041.39 470.751 1079.55 495.036C1203.21 573.451 1305.06 522.955 1464.06 527.858C1504.36 528.959 1544.48 533.717 1583.91 542.075C1787.1 585.233 2022.79 723.853 2016.57 900.888" stroke="#E0E0E0" stroke-opacity="0.05" stroke-width="2.38825" stroke-miterlimit="10"/>
<path d="M149.979 651.305C535.547 274.079 734.729 208.708 845.915 244.8C926.131 270.795 944.857 346.607 994.641 414.748C1020.77 451.44 1053.59 482.876 1091.36 507.409C1212.96 586 1312.19 544.422 1471.44 551.334C1511.56 552.952 1551.49 557.656 1590.88 565.405C1795.65 606.043 2032.67 727.782 2032.38 899.101" stroke="#E0E0E0" stroke-opacity="0.05" stroke-width="2.38825" stroke-miterlimit="10"/>
<path d="M157.511 675.895C537.943 304.665 739.022 232.602 851.957 267.848C932.594 292.917 954.952 363.056 1005.64 428.356C1032.77 464.064 1065.71 494.96 1103.07 519.755C1222.62 598.523 1319.15 565.847 1478.43 574.738C1518.41 576.796 1558.22 581.427 1597.61 588.603C1803.98 626.591 2042.32 731.545 2047.92 897.171" stroke="#E0E0E0" stroke-opacity="0.05" stroke-width="2.38825" stroke-miterlimit="10"/>
<path d="M165.334 700.562C540.361 335.293 741.38 262.937 858.009 290.726C940.273 310.76 965.058 379.715 1016.65 442.005C1044.76 476.708 1077.82 507.077 1114.78 532.135C1232.27 611.079 1326.21 587.298 1485.54 598.177C1525.39 600.713 1565.07 605.293 1604.45 611.899C1812.4 647.367 2052.11 735.311 2063.58 895.308" stroke="#E0E0E0" stroke-opacity="0.05" stroke-width="2.38825" stroke-miterlimit="10"/>
<path d="M172.995 725.186C542.691 365.862 744.721 289.865 863.999 313.967C947.356 330.695 975.308 396.101 1027.69 455.59C1056.74 489.256 1089.95 519.093 1126.52 544.384C1241.91 623.529 1333.24 608.707 1492.69 621.487C1529.78 624.501 1569.19 628.414 1611.33 635.034C1820.92 667.893 2061.87 739.173 2079.25 893.381" stroke="#E0E0E0" stroke-opacity="0.05" stroke-width="2.38825" stroke-miterlimit="10"/>
<path d="M180.656 749.81C545.174 396.507 747.966 317.149 870.026 336.942C954.431 350.661 985.58 412.528 1038.79 469.159C1068.79 501.777 1102.16 531.128 1138.33 556.725C1251.68 636.046 1340.36 630.07 1499.91 644.919C1537.05 648.364 1576.35 652.316 1618.32 658.3C1829.24 688.505 2071.65 743.003 2094.93 891.454" stroke="#E0E0E0" stroke-opacity="0.05" stroke-width="2.38825" stroke-miterlimit="10"/>
<path d="M188.359 774.41C547.602 427.103 751.229 344.367 876.042 360.086C961.454 370.821 995.998 429.063 1049.72 482.783C1080.62 514.324 1114.14 543.2 1149.9 569.102C1261.22 648.607 1347.27 651.55 1506.95 668.235C1543.99 672.068 1583.32 676.028 1625.11 681.409C1837.89 708.928 2081.47 746.639 2110.64 889.398" stroke="#E0E0E0" stroke-opacity="0.05" stroke-width="2.38825" stroke-miterlimit="10"/>
<path d="M196.019 799.034C549.996 457.689 754.473 371.651 881.985 383.108C968.397 390.891 1006.22 445.407 1060.67 496.414C1092.49 526.832 1126.18 555.226 1161.55 581.431C1270.78 661.105 1354.2 672.934 1513.96 691.785C1551.05 696.114 1590.29 700.016 1631.85 704.817C1846.26 729.589 2091.1 750.605 2126.23 887.655" stroke="#E0E0E0" stroke-opacity="0.05" stroke-width="2.38825" stroke-miterlimit="10"/>
<path d="M203.68 823.658C552.414 488.317 757.783 398.952 888.092 406.173C975.525 411.045 1016.68 461.781 1071.73 510.04C1103.37 537.767 1135.84 565.889 1173.32 593.795C1280.51 673.613 1361.29 694.393 1521.15 715.209C1558.22 719.983 1597.4 723.836 1638.83 728.083C1854.88 750.109 2101.01 754.437 2141.99 885.786" stroke="#E0E0E0" stroke-opacity="0.05" stroke-width="2.38825" stroke-miterlimit="10"/>
<path d="M211.342 848.283C554.808 519.042 760.851 426.257 894.093 429.244C982.558 431.173 1027.16 478.09 1082.75 523.657C1115.55 550.552 1148.26 578.183 1185.04 606.142C1290.14 686.233 1368.3 715.794 1528.27 738.616C1565.32 743.868 1604.48 747.68 1645.63 751.298C1863.3 770.504 2110.73 758.218 2157.59 883.874" stroke="#E0E0E0" stroke-opacity="0.05" stroke-width="2.38825" stroke-miterlimit="10"/>
<path d="M218.937 872.889C557.227 549.531 764.263 453.689 900.093 452.316C989.562 451.398 1037.65 494.366 1093.77 537.306C1127.78 563.313 1160.68 590.477 1196.61 618.487C1299.72 698.666 1375.15 737.225 1535.38 762.087C1572.45 767.761 1611.52 771.515 1652.47 774.594C1871.81 790.924 2120.51 762.015 2173.26 881.979" stroke="#E0E0E0" stroke-opacity="0.05" stroke-width="2.38825" stroke-miterlimit="10"/>
</g>
</svg>
