<svg width="390" height="257" viewBox="0 0 390 257" fill="none" xmlns="http://www.w3.org/2000/svg">
<g opacity="0.4">
<path d="M884.048 475.042C896.558 373.388 775.338 274.244 671.411 247.737C551.643 217.204 483.773 290.525 399.884 240.214C323.322 194.331 340.743 109.776 283.31 80.3259C230.527 53.2631 128.407 79.8437 -84.4136 289.836" stroke="#E0E0E0" stroke-opacity="0.05" stroke-width="1.25006" stroke-miterlimit="10"/>
<path d="M-80.4083 302.742C129.673 95.8748 232.364 67.3635 286.539 92.4076C326.676 111.026 332.071 155.797 356.546 196.221C368.629 216.892 385.657 234.237 406.098 246.699C473.042 287.577 529.054 251.813 612.164 252.302C633.364 252.366 654.482 254.923 675.084 259.92C779.855 284.967 901.757 375.416 892.332 474.073" stroke="#E0E0E0" stroke-opacity="0.05" stroke-width="1.25006" stroke-miterlimit="10"/>
<path d="M-76.3764 315.618C130.961 111.894 234.168 81.4552 289.613 104.466C330.369 121.384 337.243 164.485 362.216 203.322C374.85 223.513 391.927 240.552 412.145 253.139C477.945 294.091 532.682 263.023 615.808 264.531C636.944 264.872 657.988 267.402 678.602 272.079C784.148 295.993 906.805 377.402 900.466 473.063" stroke="#E0E0E0" stroke-opacity="0.05" stroke-width="1.25006" stroke-miterlimit="10"/>
<path d="M-72.3528 328.456C132.193 127.916 235.963 95.5803 292.759 116.525C334.157 131.785 342.453 173.165 367.97 210.444C381.121 230.137 398.231 246.873 418.208 259.584C482.932 300.628 536.245 274.197 619.468 276.764C640.561 277.34 661.558 279.831 682.201 284.205C788.554 306.795 911.916 379.352 908.663 472.016" stroke="#E0E0E0" stroke-opacity="0.05" stroke-width="1.25006" stroke-miterlimit="10"/>
<path d="M-68.3519 341.379C133.463 143.93 237.719 109.713 295.916 128.605C337.903 142.211 347.705 181.893 373.763 217.559C387.441 236.765 404.616 253.219 424.389 266.06C488.038 307.196 539.973 285.434 623.331 289.052C644.328 289.898 665.229 292.361 685.848 296.417C793.026 317.688 917.09 381.408 916.938 471.08" stroke="#E0E0E0" stroke-opacity="0.05" stroke-width="1.25006" stroke-miterlimit="10"/>
<path d="M-64.4101 354.249C134.716 159.94 239.965 122.22 299.078 140.669C341.285 153.79 352.988 190.503 379.517 224.682C393.72 243.372 410.96 259.544 430.519 272.523C493.092 313.751 543.616 296.648 626.986 301.302C647.915 302.379 668.753 304.803 689.37 308.559C797.39 328.443 922.141 383.378 925.07 470.07" stroke="#E0E0E0" stroke-opacity="0.05" stroke-width="1.25006" stroke-miterlimit="10"/>
<path d="M-60.3151 367.161C135.982 175.971 241.2 138.098 302.247 152.644C345.305 163.13 358.278 199.222 385.284 231.827C399.994 249.991 417.3 265.887 436.645 279.002C498.143 320.323 547.311 307.876 630.71 313.57C651.566 314.898 672.34 317.295 692.95 320.753C801.795 339.317 927.265 385.349 933.267 469.095" stroke="#E0E0E0" stroke-opacity="0.05" stroke-width="1.25006" stroke-miterlimit="10"/>
<path d="M-56.3049 380.05C137.202 191.972 242.949 152.193 305.382 164.809C349.013 173.564 363.643 207.799 391.06 238.937C406.265 256.559 423.647 272.176 442.789 285.414C503.191 326.84 550.993 319.082 634.452 325.771C653.865 327.349 674.493 329.397 696.553 332.862C806.253 350.061 932.376 387.371 941.472 468.087" stroke="#E0E0E0" stroke-opacity="0.05" stroke-width="1.25006" stroke-miterlimit="10"/>
<path d="M-52.2951 392.938C138.502 208.012 244.647 166.474 308.536 176.834C352.716 184.015 369.02 216.397 396.874 246.04C412.576 263.112 430.041 278.475 448.975 291.873C508.301 333.391 554.717 330.264 638.23 338.036C657.674 339.839 678.242 341.908 700.21 345.04C810.609 360.85 937.49 389.375 949.676 467.078" stroke="#E0E0E0" stroke-opacity="0.05" stroke-width="1.25006" stroke-miterlimit="10"/>
<path d="M-48.2631 405.815C139.773 224.026 246.356 180.721 311.685 188.948C356.392 194.567 374.473 225.052 402.59 253.17C418.767 269.68 436.309 284.794 455.029 298.352C513.297 339.967 558.335 341.507 641.917 350.24C661.306 352.246 681.892 354.319 703.763 357.136C815.136 371.539 942.633 391.279 957.9 466.001" stroke="#E0E0E0" stroke-opacity="0.05" stroke-width="1.25006" stroke-miterlimit="10"/>
<path d="M-44.2536 418.703C141.026 240.036 248.054 195.001 314.796 200.998C360.026 205.072 379.825 233.607 408.322 260.305C424.977 276.226 442.613 291.089 461.125 304.805C518.3 346.508 561.966 352.7 645.588 362.567C664.998 364.833 685.537 366.875 707.291 369.388C819.52 382.354 947.674 393.354 966.06 465.09" stroke="#E0E0E0" stroke-opacity="0.05" stroke-width="1.25006" stroke-miterlimit="10"/>
<path d="M-40.2442 431.592C142.291 256.067 249.786 209.291 317.992 213.071C363.757 215.621 385.299 242.177 414.11 267.437C430.673 281.95 447.671 296.67 467.289 311.277C523.393 353.055 565.677 363.932 649.349 374.827C668.751 377.326 689.261 379.343 710.947 381.566C824.033 393.095 952.86 395.36 974.31 464.111" stroke="#E0E0E0" stroke-opacity="0.05" stroke-width="1.25006" stroke-miterlimit="10"/>
<path d="M-36.2334 444.481C143.544 272.149 251.391 223.583 321.133 225.147C367.438 226.157 390.784 250.714 419.882 274.565C437.051 288.642 454.172 303.105 473.42 317.739C528.435 359.661 569.342 375.134 653.078 387.079C672.467 389.828 692.965 391.823 714.504 393.717C828.437 403.77 957.946 397.339 982.478 463.11" stroke="#E0E0E0" stroke-opacity="0.05" stroke-width="1.25006" stroke-miterlimit="10"/>
<path d="M-32.2576 457.361C144.811 288.108 253.178 237.942 324.274 237.223C371.104 236.743 396.273 259.233 425.648 281.709C443.449 295.321 460.671 309.54 479.478 324.201C533.448 366.168 572.93 386.351 656.796 399.364C676.199 402.334 696.65 404.299 718.084 405.911C832.891 414.458 963.066 399.327 990.678 462.119" stroke="#E0E0E0" stroke-opacity="0.05" stroke-width="1.25006" stroke-miterlimit="10"/>
<path d="M-28.1917 470.246C146.082 304.122 254.837 252.303 327.437 249.287C374.815 247.305 401.793 267.707 431.407 288.815C449.845 301.946 467.194 315.962 485.681 330.665C538.542 372.716 576.685 397.559 660.529 411.599C680.8 414.778 701.219 416.917 721.709 418.008C837.334 425.125 968.227 401.362 998.883 461.11" stroke="#E0E0E0" stroke-opacity="0.05" stroke-width="1.25006" stroke-miterlimit="10"/>
<path d="M-24.1812 483.135C147.348 320.154 256.646 266.649 330.532 261.332C378.453 257.865 407.266 276.149 437.196 295.947C456.274 308.579 473.716 322.385 491.812 337.127C543.615 379.275 580.363 408.782 664.224 423.841C684.408 427.272 704.793 429.399 725.251 430.209C841.804 435.691 973.296 403.336 1007.12 460.055" stroke="#E0E0E0" stroke-opacity="0.05" stroke-width="1.25006" stroke-miterlimit="10"/>
<path d="M-20.1722 496.024C148.601 336.163 258.421 281.114 333.744 273.41C382.165 268.481 412.849 284.585 442.954 303.053C462.678 315.169 480.198 328.815 497.925 343.585C548.635 385.821 584.027 419.984 667.984 436.102C688.088 439.761 708.445 441.86 728.873 442.378C846.224 446.37 978.41 405.341 1015.3 459.131" stroke="#E0E0E0" stroke-opacity="0.05" stroke-width="1.25006" stroke-miterlimit="10"/>
<path d="M-16.1447 508.917C149.849 352.262 260.076 295.491 336.886 285.486C385.9 279.086 418.391 292.974 448.709 310.176C469.155 321.761 486.703 335.233 504.056 350.048C553.699 392.342 587.688 431.202 671.708 448.37C691.732 452.248 712.064 454.318 732.459 454.555C850.664 456.982 983.53 407.329 1023.5 458.139" stroke="#E0E0E0" stroke-opacity="0.05" stroke-width="1.25006" stroke-miterlimit="10"/>
<path d="M-12.1349 521.806C151.053 368.186 261.823 309.93 340.029 297.617C389.595 289.77 423.902 301.409 454.452 317.404C475.488 328.477 493.21 341.778 510.159 356.612C558.718 399.032 591.338 442.527 675.418 460.689C695.361 464.785 715.67 466.826 736.03 466.783C855.093 467.628 988.702 409.458 1031.68 457.214" stroke="#E0E0E0" stroke-opacity="0.05" stroke-width="1.25006" stroke-miterlimit="10"/>
<path d="M-8.12465 534.695C152.387 384.235 263.587 324.373 343.189 309.625C393.343 300.323 429.459 309.675 460.251 324.43C481.969 334.852 499.721 348.107 516.307 363.007C563.774 405.515 595.021 453.661 679.155 472.907C699.014 477.229 719.306 479.243 739.628 478.909C859.547 478.117 993.764 411.321 1039.9 456.155" stroke="#E0E0E0" stroke-opacity="0.05" stroke-width="1.25006" stroke-miterlimit="10"/>
<path d="M-4.09269 547.571C153.658 400.25 265.329 338.901 346.284 321.671C397.001 310.943 434.918 317.969 465.938 331.535C488.333 341.323 506.158 354.507 522.367 369.396C568.771 412.018 598.64 464.832 682.825 485.106C702.608 489.638 722.889 491.626 743.177 491.022C863.903 488.434 998.812 413.308 1048.07 455.137" stroke="#E0E0E0" stroke-opacity="0.05" stroke-width="1.25006" stroke-miterlimit="10"/>
<path d="M-0.100371 560.455C251.442 326.428 390.299 306.339 471.776 338.68C560.72 373.983 572.922 468.596 686.615 497.393C819.992 531.156 995.128 408.733 1056.31 454.154" stroke="#E0E0E0" stroke-opacity="0.05" stroke-width="1.25006" stroke-miterlimit="10"/>
</g>
</svg>
