<?xml version="1.0" encoding="utf-8"?>
<!-- Generator: Adobe Illustrator 27.0.0, SVG Export Plug-In . SVG Version: 6.00 Build 0)  -->
<svg version="1.1" id="Layer_1" xmlns="http://www.w3.org/2000/svg" xmlns:xlink="http://www.w3.org/1999/xlink" x="0px" y="0px"
	 viewBox="0 0 390 506" style="enable-background:new 0 0 390 506;" xml:space="preserve">
<style type="text/css">
	.st0{opacity:0.5;}
	
		.st1{opacity:0.25;fill:none;stroke:#F8E1CC;stroke-width:42.111;stroke-linecap:round;stroke-linejoin:round;enable-background:new    ;}
	.st2{opacity:0.15;}
	.st3{fill:none;stroke:#1E1E1E;stroke-width:0.233;stroke-miterlimit:10;}
	.st4{fill:#1E1E1E;}
</style>
<g class="st0">
	<path class="st1" d="M-182.8,107.8l110.7-77.5l-34.7,290L87.9,49L52.1,391.5L242.7,98.1l-34.5,341.1L390,162.1L366,475.7l184.2-250
		l-35.4,243.2l148.5-96.6"/>
</g>
<g class="st2">
	<path class="st3" d="M196.6,259.2c106.1,7.2,194.3-19.4,197-59.4c2.7-40-81.1-78.3-187.2-85.5c-106.1-7.2-194.3,19.4-197,59.4
		C6.7,213.7,90.5,252,196.6,259.2L196.6,259.2z"/>
	<path class="st3" d="M437.7,214.1c8.2-62.3-92.2-126.8-224.2-144.1C81.4,52.6-32.2,89-40.4,151.3c-8.2,62.3,92.2,126.8,224.2,144.1
		C315.9,312.8,429.5,276.4,437.7,214.1z"/>
	<path class="st3" d="M204.2,327.2c164.7-4.5,296.6-66,294.7-137.3c-1.9-71.4-137-125.6-301.7-121.1
		c-164.7,4.5-296.6,66-294.7,137.3S39.5,331.7,204.2,327.2z"/>
</g>
<path class="st4" d="M45.7,38.6c0,0,8.8-0.2,9-9c0,0-0.2,8.8,8.7,9c0,0-8.8-0.2-8.8,8.7C54.6,47.2,54.6,38.4,45.7,38.6L45.7,38.6z
	 M0.6,93.8c0,0,3.7-0.1,3.7-3.7c0,0-0.1,3.7,3.6,3.7c0,0-3.7-0.1-3.7,3.6C4.2,97.4,4.2,93.7,0.6,93.8z M54.2,275.6
	c0,0,6.4-0.1,6.5-6.5c0,0-0.1,6.4,6.3,6.5c0,0-6.4-0.1-6.4,6.3C60.6,281.9,60.6,275.5,54.2,275.6L54.2,275.6z M335.2,48.7
	c0,0,6-0.1,6.1-6.1c0,0-0.1,6,5.8,6.1c0,0-6-0.1-6,5.8C341.2,54.6,341.2,48.6,335.2,48.7L335.2,48.7z M237,12.3
	c0,0,11.1-0.2,11.3-11.3c0,0-0.2,11.1,10.9,11.3c0,0-11.1-0.2-11.1,10.9C248.1,23.2,248.1,12,237,12.3L237,12.3z M20.9,198.5
	c0,0,3.5-0.1,3.6-3.6c0,0-0.1,3.5,3.4,3.6c0,0-3.5-0.1-3.5,3.4C24.4,202,24.4,198.5,20.9,198.5z M223.5,258.4c0,0,5.7-0.1,5.8-5.8
	c0,0-0.1,5.7,5.6,5.8c0,0-5.7-0.1-5.7,5.6C229.2,264,229.2,258.3,223.5,258.4L223.5,258.4L223.5,258.4z M347.5,192.2
	c0,0,6.5-0.1,6.6-6.6c0,0-0.1,6.5,6.4,6.6c0,0-6.5-0.1-6.5,6.4C353.9,198.6,353.9,192.1,347.5,192.2L347.5,192.2z M301,312.1
	c0,0,5.7-0.1,5.8-5.8c0,0-0.1,5.7,5.6,5.8c0,0-5.7-0.1-5.7,5.6C306.7,317.7,306.7,312,301,312.1L301,312.1z M152.8,74.7
	c0,0,4.5-0.1,4.6-4.6c0,0-0.1,4.5,4.5,4.6c0,0-4.5-0.1-4.5,4.5C157.3,79.1,157.3,74.6,152.8,74.7L152.8,74.7L152.8,74.7z"/>
</svg>
