<svg width="270" height="54" viewBox="0 0 270 54" fill="none" xmlns="http://www.w3.org/2000/svg">
<g clip-path="url(#clip0_384_5390)">
<path d="M44.3776 18.5903C38.3503 23.32 32.594 27.8369 26.7547 32.421C20.9983 27.8873 15.2641 23.3759 9.23129 18.6239C9.23129 19.4747 9.23129 19.956 9.23129 20.443C9.23129 28.5254 9.20917 36.6078 9.25341 44.6901C9.25894 45.7872 8.92163 46.47 8.04795 47.1193C5.75315 48.8209 3.5413 50.6344 1.29074 52.4031C1.09167 52.5598 0.859426 52.6829 0.5 52.9124V0.0131836C9.31976 6.95373 17.9792 13.7599 26.7492 20.6557C35.3975 13.8551 44.0348 7.06007 52.8988 0.0859473V52.8285C52.1191 52.2688 51.4224 51.7986 50.7588 51.278C48.9506 49.8564 47.1756 48.3899 45.3453 47.0018C44.6209 46.4477 44.35 45.8432 44.35 44.914C44.3887 36.7421 44.3721 28.5646 44.3721 20.3926C44.3721 19.8945 44.3721 19.3963 44.3721 18.5959L44.3776 18.5903Z" fill="white"/>
<path d="M226.043 52.851C226.015 52.3361 225.965 51.8379 225.965 51.3398C225.965 34.8056 225.976 18.2715 225.932 1.74289C225.932 0.427546 226.341 0.0973102 227.58 0.119699C233.192 0.226046 238.811 0.091713 244.412 0.326796C251.208 0.606656 257.108 3.3381 261.797 8.25245C269.157 15.971 271.375 25.0889 267.863 35.2982C264.363 45.4739 254.531 52.6159 243.815 52.907C238.158 53.0581 232.496 52.9406 226.833 52.9406C226.607 52.9406 226.385 52.8902 226.037 52.8454L226.043 52.851ZM234.647 26.5945C234.647 31.9343 234.68 37.2796 234.619 42.6193C234.608 43.8059 234.873 44.2537 236.14 44.2089C238.899 44.1138 241.664 44.1362 244.423 44.1865C250.036 44.2985 254.238 41.6398 257.357 37.2236C261.482 31.3969 262.179 25.0889 258.955 18.6017C256.411 13.4802 252.474 9.87564 246.674 9.148C243.273 8.72261 239.784 9.01367 236.339 8.88493C235.039 8.83456 234.591 9.18159 234.608 10.5641C234.685 15.9038 234.641 21.2492 234.641 26.5889L234.647 26.5945Z" fill="white"/>
<path d="M69.9577 26.7901C69.7144 12.4165 81.4925 0.416037 96.0575 0.203343C110.025 -0.00375392 122.008 11.9127 122.262 26.2528C122.511 40.3074 110.766 52.9627 96.3008 53.0074C82.2058 53.0522 69.93 41.3037 69.9577 26.7845V26.7901ZM96.2013 8.87902C86.7125 8.75588 78.689 16.7039 78.5507 26.3591C78.4125 35.9863 86.4636 44.1806 96.1239 44.2366C105.347 44.2926 113.421 36.2326 113.592 26.8069C113.763 17.2469 105.757 8.99656 96.2013 8.87342V8.87902Z" fill="white"/>
<path d="M147.749 52.9348H139.255V0.203427C139.609 0.175441 140.007 0.113872 140.405 0.113872C148.368 0.113872 156.331 0.00192785 164.288 0.147455C169.264 0.237011 173.832 1.63072 177.067 5.84542C179.157 8.56566 179.887 11.7561 179.92 15.1032C179.964 20.2414 178.67 24.8703 174.296 28.044C171.415 30.1373 168.12 31.0497 164.57 31.0385C159.599 31.0217 154.627 31.0385 149.656 31.0385C148.388 31.0385 147.754 31.6598 147.754 32.9023C147.754 38.9865 147.754 45.0707 147.754 51.1548V52.9348H147.749ZM147.76 8.91269C147.76 13.2449 147.743 17.3701 147.798 21.4952C147.798 21.7471 148.373 22.2061 148.683 22.2061C154.251 22.2452 159.825 22.346 165.388 22.1725C168.833 22.0661 171.045 19.3627 171.261 15.9932C171.537 11.6721 168.424 9.27651 165.631 9.02463C164.354 8.91269 163.06 8.91829 161.772 8.91269C157.171 8.90149 152.576 8.91269 147.76 8.91269Z" fill="white"/>
<path d="M206.407 52.9014H198.052V0.298828H206.407V52.9014Z" fill="white"/>
</g>
<defs>
<clipPath id="clip0_384_5390">
<rect width="269" height="53" fill="white" transform="translate(0.5 0.0131836)"/>
</clipPath>
</defs>
</svg>
