<svg width="270" height="54" viewBox="0 0 270 54" fill="none" xmlns="http://www.w3.org/2000/svg">
<g clip-path="url(#clip0_379_1190)">
<path d="M44.3776 18.5901C38.3503 23.3198 32.594 27.8367 26.7547 32.4209C20.9983 27.8871 15.2641 23.3758 9.23129 18.6237C9.23129 19.4745 9.23129 19.9559 9.23129 20.4428C9.23129 28.5252 9.20917 36.6076 9.25341 44.6899C9.25894 45.787 8.92163 46.4699 8.04795 47.1191C5.75315 48.8207 3.5413 50.6342 1.29074 52.4029C1.09167 52.5596 0.859426 52.6828 0.5 52.9123V0.0130005C9.31976 6.95354 17.9792 13.7598 26.7492 20.6555C35.3975 13.8549 44.0348 7.05989 52.8988 0.0857642V52.8283C52.1191 52.2686 51.4224 51.7984 50.7588 51.2779C48.9506 49.8562 47.1756 48.3897 45.3453 47.0016C44.6209 46.4475 44.35 45.843 44.35 44.9138C44.3887 36.7419 44.3721 28.5644 44.3721 20.3924C44.3721 19.8943 44.3721 19.3961 44.3721 18.5957L44.3776 18.5901Z" fill="#18181B"/>
<path d="M226.043 52.8507C226.015 52.3357 225.965 51.8376 225.965 51.3394C225.965 34.8052 225.976 18.2711 225.932 1.74252C225.932 0.42718 226.341 0.096944 227.58 0.119333C233.192 0.22568 238.811 0.0913468 244.412 0.32643C251.208 0.60629 257.108 3.33773 261.797 8.25208C269.157 15.9706 271.375 25.0885 267.863 35.2978C264.363 45.4735 254.531 52.6156 243.815 52.9066C238.158 53.0578 232.496 52.9402 226.833 52.9402C226.607 52.9402 226.385 52.8898 226.037 52.8451L226.043 52.8507ZM234.647 26.5941C234.647 31.9339 234.68 37.2792 234.619 42.619C234.608 43.8056 234.873 44.2533 236.14 44.2086C238.899 44.1134 241.664 44.1358 244.423 44.1862C250.036 44.2981 254.238 41.6395 257.357 37.2232C261.482 31.3966 262.179 25.0885 258.955 18.6013C256.411 13.4799 252.474 9.87527 246.674 9.14764C243.273 8.72225 239.784 9.0133 236.339 8.88457C235.039 8.83419 234.591 9.18122 234.608 10.5637C234.685 15.9035 234.641 21.2488 234.641 26.5885L234.647 26.5941Z" fill="#18181B"/>
<path d="M69.9577 26.79C69.7144 12.4164 81.4925 0.415976 96.0575 0.203282C110.025 -0.00381495 122.008 11.9127 122.262 26.2527C122.511 40.3073 110.766 52.9626 96.3008 53.0074C82.2058 53.0522 69.93 41.3036 69.9577 26.7844V26.79ZM96.2013 8.87896C86.7125 8.75582 78.689 16.7039 78.5507 26.3591C78.4125 35.9863 86.4636 44.1806 96.1239 44.2365C105.347 44.2925 113.421 36.2325 113.592 26.8068C113.763 17.2468 105.757 8.9965 96.2013 8.87336V8.87896Z" fill="#18181B"/>
<path d="M147.749 52.9346H139.255V0.203305C139.609 0.175319 140.007 0.11375 140.405 0.11375C148.368 0.11375 156.331 0.00180577 164.288 0.147333C169.264 0.236889 173.832 1.63059 177.067 5.84529C179.157 8.56554 179.887 11.7559 179.92 15.1031C179.964 20.2413 178.67 24.8702 174.296 28.0438C171.415 30.1372 168.12 31.0495 164.57 31.0383C159.599 31.0216 154.627 31.0383 149.656 31.0383C148.388 31.0383 147.754 31.6596 147.754 32.9022C147.754 38.9864 147.754 45.0706 147.754 51.1547V52.9346H147.749ZM147.76 8.91257C147.76 13.2448 147.743 17.37 147.798 21.4951C147.798 21.747 148.373 22.2059 148.683 22.2059C154.251 22.2451 159.825 22.3459 165.388 22.1724C168.833 22.066 171.045 19.3626 171.261 15.993C171.537 11.672 168.424 9.27639 165.631 9.02451C164.354 8.91257 163.06 8.91816 161.772 8.91257C157.171 8.90137 152.576 8.91257 147.76 8.91257Z" fill="#18181B"/>
<path d="M206.407 52.9011H198.052V0.298462H206.407V52.9011Z" fill="#18181B"/>
</g>
<defs>
<clipPath id="clip0_379_1190">
<rect width="269" height="53" fill="white" transform="translate(0.5 0.0130005)"/>
</clipPath>
</defs>
</svg>
