<svg width="2200" height="850" viewBox="0 0 2200 850" fill="none" xmlns="http://www.w3.org/2000/svg">
<path d="M313.075 26.6576C313.075 26.6576 338.905 26.1676 339.405 0.327576C339.405 0.327576 338.915 26.1576 364.745 26.6576C364.745 26.6576 338.915 26.1676 338.915 51.9976C338.915 51.9976 338.915 26.1676 313.085 26.6576H313.075Z" fill="#1E1E1E"/>
<path d="M0.0849609 290.088C0.0849609 290.088 20.865 289.688 21.265 268.908C21.265 268.908 20.865 289.688 41.645 290.088C41.645 290.088 20.865 289.688 20.865 310.468C20.865 310.468 20.865 289.688 0.0849609 290.088Z" fill="#1E1E1E"/>
<path d="M378.09 592.276C378.09 592.276 391.01 592.026 391.25 579.116C391.25 579.116 391 592.036 403.92 592.276C403.92 592.276 391 592.026 391 604.946C391 604.946 391 592.026 378.08 592.276H378.09Z" fill="#1E1E1E"/>
<path d="M2173.99 55.4225C2173.99 55.4225 2186.91 55.1726 2187.15 42.2626C2187.15 42.2626 2186.9 55.1825 2199.82 55.4225C2199.82 55.4225 2186.9 55.1726 2186.9 68.0926C2186.9 68.0926 2186.9 55.1725 2173.98 55.4225H2173.99Z" fill="#1E1E1E"/>
<path d="M1345.38 52.3026C1345.38 52.3026 1361.47 51.9926 1361.78 35.9026C1361.78 35.9026 1361.47 51.9926 1377.57 52.3026C1377.57 52.3026 1361.48 51.9926 1361.48 68.0926C1361.48 68.0926 1361.48 52.0026 1345.39 52.3026H1345.38Z" fill="#1E1E1E"/>
<path d="M176.519 829.604C176.519 829.604 196.5 829.224 196.88 809.243C196.88 809.243 196.5 829.224 216.481 829.604C216.481 829.604 196.5 829.224 196.5 849.205C196.5 849.205 196.5 829.224 176.519 829.604Z" fill="#1E1E1E"/>
<path d="M1539.29 660.223C1539.29 660.223 1555.38 659.913 1555.69 643.823C1555.69 643.823 1555.38 659.913 1571.48 660.223C1571.48 660.223 1555.39 659.913 1555.39 676.013C1555.39 676.013 1555.39 659.923 1539.3 660.223H1539.29Z" fill="#1E1E1E"/>
<path d="M2013.6 778.033C2013.6 778.033 2029.69 777.723 2030 761.633C2030 761.633 2029.69 777.723 2045.79 778.033C2045.79 778.033 2029.7 777.723 2029.7 793.823C2029.7 793.823 2029.7 777.733 2013.61 778.033H2013.6Z" fill="#1E1E1E"/>
<path d="M1961.93 358.593C1961.93 358.593 1987.76 358.103 1988.26 332.263C1988.26 332.263 1987.77 358.093 2013.6 358.593C2013.6 358.593 1987.77 358.103 1987.77 383.933C1987.77 383.933 1987.77 358.103 1961.94 358.593H1961.93Z" fill="#1E1E1E"/>
</svg>
