<svg width="12" height="12" viewBox="0 0 12 12" fill="none" xmlns="http://www.w3.org/2000/svg">
<path d="M6.05598 7.19788L1.8489 11.405C1.69149 11.5624 1.49116 11.6411 1.24789 11.6411C1.00462 11.6411 0.804285 11.5624 0.646878 11.405C0.48947 11.2476 0.410767 11.0472 0.410767 10.8039C0.410767 10.5607 0.48947 10.3603 0.646878 10.2029L4.85396 5.99586L0.646878 1.78878C0.48947 1.63137 0.410767 1.43104 0.410767 1.18777C0.410767 0.944503 0.48947 0.744166 0.646878 0.586758C0.804285 0.42935 1.00462 0.350647 1.24789 0.350647C1.49116 0.350647 1.69149 0.42935 1.8489 0.586758L6.05598 4.79384L10.2631 0.586758C10.4205 0.42935 10.6208 0.350647 10.8641 0.350647C11.1073 0.350647 11.3077 0.42935 11.4651 0.586758C11.6225 0.744166 11.7012 0.944503 11.7012 1.18777C11.7012 1.43104 11.6225 1.63137 11.4651 1.78878L7.258 5.99586L11.4651 10.2029C11.6225 10.3603 11.7012 10.5607 11.7012 10.8039C11.7012 11.0472 11.6225 11.2476 11.4651 11.405C11.3077 11.5624 11.1073 11.6411 10.8641 11.6411C10.6208 11.6411 10.4205 11.5624 10.2631 11.405L6.05598 7.19788Z" fill="white" fill-opacity="0.87"/>
</svg>
