<svg width="65" height="65" viewBox="0 0 65 65" fill="none" xmlns="http://www.w3.org/2000/svg">
<rect x="0.891602" y="0.927734" width="64.0625" height="64.0625" rx="5" fill="black" fill-opacity="0.25"/>
<mask id="mask0_1822_948" style="mask-type:alpha" maskUnits="userSpaceOnUse" x="9" y="5" width="50" height="56">
<rect x="9.11035" y="5.15234" width="49.4342" height="55.6135" fill="#D9D9D9"/>
</mask>
<g mask="url(#mask0_1822_948)">
<path d="M24.1472 52.655C23.1173 52.655 22.2419 52.2495 21.521 51.4384C20.8001 50.6274 20.4396 49.6426 20.4396 48.484V19.0552H19.9247C19.4784 19.0552 19.1097 18.8907 18.8186 18.5616C18.5261 18.2341 18.3799 17.8193 18.3799 17.3173C18.3799 16.8152 18.5261 16.4004 18.8186 16.0729C19.1097 15.7439 19.4784 15.5793 19.9247 15.5793H27.6488C27.6488 15 27.8287 14.5173 28.1884 14.1311C28.5496 13.7449 28.9876 13.5518 29.5026 13.5518H38.1536C38.6685 13.5518 39.1065 13.7449 39.4677 14.1311C39.8275 14.5173 40.0073 15 40.0073 15.5793H47.7314C48.1777 15.5793 48.5471 15.7439 48.8396 16.0729C49.1307 16.4004 49.2762 16.8152 49.2762 17.3173C49.2762 17.8193 49.1307 18.2341 48.8396 18.5616C48.5471 18.8907 48.1777 19.0552 47.7314 19.0552H47.2165V48.484C47.2165 49.6426 46.856 50.6274 46.1351 51.4384C45.4142 52.2495 44.5388 52.655 43.5089 52.655H24.1472ZM23.5293 19.0552V48.484C23.5293 48.6771 23.5897 48.8416 23.7105 48.9775C23.83 49.1119 23.9756 49.1791 24.1472 49.1791H43.5089C43.6806 49.1791 43.8268 49.1119 43.9477 48.9775C44.0671 48.8416 44.1269 48.6771 44.1269 48.484V19.0552H23.5293ZM28.4727 42.8068C28.4727 43.3088 28.6189 43.7244 28.9114 44.0534C29.2025 44.3809 29.5712 44.5447 30.0175 44.5447C30.4638 44.5447 30.8332 44.3809 31.1257 44.0534C31.4168 43.7244 31.5623 43.3088 31.5623 42.8068V25.4275C31.5623 24.9255 31.4168 24.5099 31.1257 24.1809C30.8332 23.8534 30.4638 23.6896 30.0175 23.6896C29.5712 23.6896 29.2025 23.8534 28.9114 24.1809C28.6189 24.5099 28.4727 24.9255 28.4727 25.4275V42.8068ZM36.0938 42.8068C36.0938 43.3088 36.2394 43.7244 36.5305 44.0534C36.823 44.3809 37.1923 44.5447 37.6386 44.5447C38.0849 44.5447 38.4543 44.3809 38.7468 44.0534C39.0379 43.7244 39.1834 43.3088 39.1834 42.8068V25.4275C39.1834 24.9255 39.0379 24.5099 38.7468 24.1809C38.4543 23.8534 38.0849 23.6896 37.6386 23.6896C37.1923 23.6896 36.823 23.8534 36.5305 24.1809C36.2394 24.5099 36.0938 24.9255 36.0938 25.4275V42.8068ZM23.5293 19.0552V48.484C23.5293 48.6771 23.5897 48.8416 23.7105 48.9775C23.83 49.1119 23.9756 49.1791 24.1472 49.1791H23.5293V19.0552Z" fill="#F0554E"/>
</g>
</svg>
