<svg width="50" height="56" viewBox="0 0 50 56" fill="none" xmlns="http://www.w3.org/2000/svg">
<mask id="mask0_1822_950" style="mask-type:alpha" maskUnits="userSpaceOnUse" x="0" y="0" width="50" height="56">
<rect x="0.110352" y="0.152344" width="49.4342" height="55.6135" fill="#D9D9D9"/>
</mask>
<g mask="url(#mask0_1822_950)">
<path d="M15.1472 47.655C14.1173 47.655 13.2419 47.2495 12.521 46.4384C11.8001 45.6274 11.4396 44.6426 11.4396 43.484V14.0552H10.9247C10.4784 14.0552 10.1097 13.8907 9.81861 13.5616C9.52613 13.2341 9.37988 12.8193 9.37988 12.3173C9.37988 11.8152 9.52613 11.4004 9.81861 11.0729C10.1097 10.7439 10.4784 10.5793 10.9247 10.5793H18.6488C18.6488 10 18.8287 9.51727 19.1884 9.13106C19.5496 8.74486 19.9876 8.55176 20.5026 8.55176H29.1536C29.6685 8.55176 30.1065 8.74486 30.4677 9.13106C30.8274 9.51727 31.0073 10 31.0073 10.5793H38.7314C39.1777 10.5793 39.5471 10.7439 39.8396 11.0729C40.1307 11.4004 40.2762 11.8152 40.2762 12.3173C40.2762 12.8193 40.1307 13.2341 39.8396 13.5616C39.5471 13.8907 39.1777 14.0552 38.7314 14.0552H38.2165V43.484C38.2165 44.6426 37.856 45.6274 37.1351 46.4384C36.4142 47.2495 35.5388 47.655 34.5089 47.655H15.1472ZM14.5293 14.0552V43.484C14.5293 43.6771 14.5897 43.8416 14.7105 43.9775C14.83 44.1119 14.9756 44.1791 15.1472 44.1791H34.5089C34.6806 44.1791 34.8268 44.1119 34.9477 43.9775C35.0671 43.8416 35.1269 43.6771 35.1269 43.484V14.0552H14.5293ZM19.4727 37.8068C19.4727 38.3088 19.6189 38.7244 19.9114 39.0534C20.2025 39.3809 20.5712 39.5447 21.0175 39.5447C21.4638 39.5447 21.8332 39.3809 22.1257 39.0534C22.4168 38.7244 22.5623 38.3088 22.5623 37.8068V20.4275C22.5623 19.9255 22.4168 19.5099 22.1257 19.1809C21.8332 18.8534 21.4638 18.6896 21.0175 18.6896C20.5712 18.6896 20.2025 18.8534 19.9114 19.1809C19.6189 19.5099 19.4727 19.9255 19.4727 20.4275V37.8068ZM27.0938 37.8068C27.0938 38.3088 27.2394 38.7244 27.5305 39.0534C27.823 39.3809 28.1923 39.5447 28.6386 39.5447C29.0849 39.5447 29.4543 39.3809 29.7468 39.0534C30.0379 38.7244 30.1834 38.3088 30.1834 37.8068V20.4275C30.1834 19.9255 30.0379 19.5099 29.7468 19.1809C29.4543 18.8534 29.0849 18.6896 28.6386 18.6896C28.1923 18.6896 27.823 18.8534 27.5305 19.1809C27.2394 19.5099 27.0938 19.9255 27.0938 20.4275V37.8068ZM14.5293 14.0552V43.484C14.5293 43.6771 14.5897 43.8416 14.7105 43.9775C14.83 44.1119 14.9756 44.1791 15.1472 44.1791H14.5293V14.0552Z" fill="#F0554E"/>
</g>
</svg>
