<svg width="21" height="25" viewBox="0 0 21 25" fill="none" xmlns="http://www.w3.org/2000/svg">
<path d="M13.9657 0.200684H7.00934V2.51946H13.9657V0.200684ZM9.32812 15.2727H11.6469V8.3164H9.32812V15.2727ZM18.638 7.60918L20.2843 5.96285C19.7858 5.37156 19.2409 4.81505 18.6496 4.32811L17.0033 5.97444C15.2062 4.5368 12.9454 3.67885 10.4875 3.67885C4.72535 3.67885 0.053009 8.35119 0.053009 14.1133C0.053009 19.8755 4.71375 24.5479 10.4875 24.5479C16.2613 24.5479 20.922 19.8755 20.922 14.1133C20.922 11.6554 20.0641 9.39464 18.638 7.60918ZM10.4875 22.2291C6.00068 22.2291 2.37179 18.6002 2.37179 14.1133C2.37179 9.62651 6.00068 5.99763 10.4875 5.99763C14.9743 5.99763 18.6032 9.62651 18.6032 14.1133C18.6032 18.6002 14.9743 22.2291 10.4875 22.2291Z" fill="#E7704C"/>
</svg>
