<svg width="59" height="59" viewBox="0 0 59 59" fill="none" xmlns="http://www.w3.org/2000/svg">
<rect x="0.195312" y="0.651978" width="58.295" height="58.295" rx="29.1475" fill="#FF993F" fill-opacity="0.1"/>
<g clip-path="url(#clip0_916_6218)">
<path d="M21.0166 20.9082V40.0951C21.0166 40.2616 21.2639 40.3576 21.4335 40.2564L29.0304 35.6108C29.1263 35.5585 29.2337 35.5312 29.3428 35.5312C29.4519 35.5312 29.5592 35.5585 29.6551 35.6108L37.2521 40.2564C37.4216 40.3576 37.669 40.2564 37.669 40.0951V20.9082C37.5991 20.42 37.3427 19.9783 36.9541 19.6767C36.5655 19.3752 36.0752 19.2374 35.5871 19.2927H23.0934C22.6061 19.2388 22.1171 19.3772 21.7296 19.6787C21.3421 19.9801 21.0864 20.421 21.0166 20.9082Z" stroke="#FF993F" stroke-width="2.54572"/>
</g>
<defs>
<clipPath id="clip0_916_6218">
<rect width="18.9459" height="23.318" fill="white" transform="translate(19.8699 18.1405)"/>
</clipPath>
</defs>
</svg>
