<svg width="326" height="38" viewBox="0 0 326 38" fill="none" xmlns="http://www.w3.org/2000/svg">
<path d="M31.8353 17.0775V18.4573C31.8334 21.6914 30.7862 24.8383 28.8497 27.4286C26.9133 30.0189 24.1914 31.9139 21.09 32.8308C17.9886 33.7478 14.6739 33.6377 11.6402 32.5169C8.60654 31.3961 6.01642 29.3247 4.25617 26.6116C2.49591 23.8985 1.65983 20.6891 1.87263 17.462C2.08542 14.2349 3.33569 11.163 5.43696 8.70452C7.53822 6.24603 10.3779 4.53266 13.5325 3.81992C16.6871 3.10718 19.9876 3.43327 22.9417 4.74955" stroke="#1E1E1E" stroke-width="2.99951" stroke-linecap="round" stroke-linejoin="round"/>
<path d="M31.8352 6.46094L16.8377 21.4735L12.3384 16.9742" stroke="#1E1E1E" stroke-width="2.99951" stroke-linecap="round" stroke-linejoin="round"/>
<path d="M54.5955 30.0078V6.92918H62.0881C63.5635 6.92918 64.8386 7.21371 65.9135 7.78277C66.9884 8.35184 67.8209 9.15274 68.411 10.1855C69.0012 11.1971 69.2962 12.409 69.2962 13.8212C69.2962 15.2122 69.0012 16.4241 68.411 17.4568C67.8209 18.4685 66.9778 19.2589 65.8819 19.8279C64.807 20.397 63.5424 20.6815 62.0881 20.6815H57.7253V30.0078H54.5955ZM57.7253 17.8994H62.0881C63.3105 17.8994 64.2801 17.5306 64.9967 16.7929C65.7133 16.0342 66.0716 15.0436 66.0716 13.8212C66.0716 12.5776 65.7133 11.5871 64.9967 10.8494C64.2801 10.0906 63.3105 9.71126 62.0881 9.71126H57.7253V17.8994ZM74.7216 30.0078V12.6198H77.8198V15.9393H77.8831C78.0306 14.7801 78.5048 13.8844 79.3057 13.2521C80.1277 12.6198 81.2026 12.3037 82.5304 12.3037C84.3219 12.3037 85.7551 12.8833 86.83 14.0425C87.9049 15.2017 88.4423 16.7613 88.4423 18.7214V19.986H85.2809V18.9743C85.2809 17.7308 84.9542 16.7613 84.3008 16.0658C83.6685 15.3703 82.7306 15.0225 81.4871 15.0225C79.0633 15.0225 77.8514 16.3609 77.8514 19.0376V30.0078H74.7216ZM100.475 30.2607C98.3464 30.2607 96.6603 29.6706 95.4168 28.4903C94.1733 27.289 93.5515 25.6555 93.5515 23.5901V19.0376C93.5515 16.9721 94.1733 15.3492 95.4168 14.1689C96.6603 12.9676 98.3464 12.3669 100.475 12.3669C102.604 12.3669 104.29 12.9676 105.533 14.1689C106.777 15.3492 107.399 16.9615 107.399 19.0059V23.5901C107.399 25.6555 106.777 27.289 105.533 28.4903C104.29 29.6706 102.604 30.2607 100.475 30.2607ZM100.475 27.5103C101.655 27.5103 102.583 27.1836 103.257 26.5302C103.932 25.8558 104.269 24.8757 104.269 23.5901V19.0376C104.269 17.7519 103.932 16.7824 103.257 16.129C102.583 15.4546 101.655 15.1174 100.475 15.1174C99.2948 15.1174 98.3675 15.4546 97.693 16.129C97.0186 16.7824 96.6814 17.7519 96.6814 19.0376V23.5901C96.6814 24.8757 97.0186 25.8558 97.693 26.5302C98.3675 27.1836 99.2948 27.5103 100.475 27.5103ZM115.606 35.6984V32.9164H121.044C122.772 32.9164 123.636 32.0944 123.636 30.4504V28.4587L123.699 25.2972H123.636C123.51 26.4143 123.036 27.2995 122.214 27.9529C121.392 28.6062 120.327 28.9329 119.021 28.9329C117.229 28.9329 115.817 28.3428 114.784 27.1625C113.751 25.9822 113.235 24.391 113.235 22.3887V18.8163C113.235 16.814 113.751 15.2333 114.784 14.0741C115.817 12.8938 117.229 12.3037 119.021 12.3037C120.327 12.3037 121.392 12.6303 122.214 13.2837C123.036 13.916 123.51 14.8012 123.636 15.9393H123.668L123.636 12.6198H126.734V30.482C126.734 32.1049 126.229 33.38 125.217 34.3074C124.205 35.2348 122.814 35.6984 121.044 35.6984H115.606ZM120.001 26.2141C121.118 26.2141 122.003 25.8663 122.656 25.1708C123.31 24.4753 123.636 23.4952 123.636 22.2306V18.9743C123.636 17.7308 123.31 16.7613 122.656 16.0658C122.003 15.3703 121.118 15.0225 120.001 15.0225C118.841 15.0225 117.946 15.3703 117.313 16.0658C116.681 16.7402 116.365 17.7097 116.365 18.9743V22.2306C116.365 23.5163 116.681 24.5069 117.313 25.2024C117.946 25.8768 118.841 26.2141 120.001 26.2141ZM133.488 30.0078V12.6198H136.586V15.9393H136.649C136.797 14.7801 137.271 13.8844 138.072 13.2521C138.894 12.6198 139.969 12.3037 141.296 12.3037C143.088 12.3037 144.521 12.8833 145.596 14.0425C146.671 15.2017 147.208 16.7613 147.208 18.7214V19.986H144.047V18.9743C144.047 17.7308 143.72 16.7613 143.067 16.0658C142.435 15.3703 141.497 15.0225 140.253 15.0225C137.829 15.0225 136.617 16.3609 136.617 19.0376V30.0078H133.488ZM159.241 30.324C157.85 30.324 156.628 30.05 155.574 29.502C154.541 28.9329 153.74 28.1531 153.171 27.1625C152.602 26.1508 152.318 24.9706 152.318 23.6217V18.9743C152.318 17.6465 152.602 16.4873 153.171 15.4967C153.74 14.4851 154.541 13.7052 155.574 13.1572C156.628 12.5882 157.85 12.3037 159.241 12.3037C160.632 12.3037 161.844 12.5882 162.877 13.1572C163.931 13.7052 164.742 14.4851 165.311 15.4967C165.88 16.4873 166.165 17.6465 166.165 18.9743V22.0726H155.384V23.6217C155.384 24.9706 155.711 25.9928 156.364 26.6883C157.039 27.3838 157.998 27.7316 159.241 27.7316C160.295 27.7316 161.138 27.5524 161.77 27.1941C162.403 26.8147 162.803 26.2562 162.972 25.5185H166.07C165.859 26.9939 165.121 28.1636 163.857 29.0278C162.613 29.8919 161.075 30.324 159.241 30.324ZM155.384 18.9743V19.8279H163.13V18.9743C163.13 17.6465 162.793 16.6349 162.118 15.9393C161.465 15.2227 160.506 14.8644 159.241 14.8644C157.977 14.8644 157.018 15.2227 156.364 15.9393C155.711 16.6349 155.384 17.6465 155.384 18.9743ZM178.261 30.2607C176.427 30.2607 174.92 29.8392 173.74 28.9961C172.581 28.1531 172.001 27.0044 172.001 25.5502H175.194C175.194 26.2035 175.479 26.7094 176.048 27.0677C176.638 27.4049 177.397 27.5735 178.324 27.5735H179.652C180.748 27.5735 181.559 27.3627 182.086 26.9412C182.613 26.4986 182.877 25.919 182.877 25.2024C182.877 24.4858 182.624 23.9273 182.118 23.5268C181.612 23.1264 180.895 22.8418 179.968 22.6732L177.597 22.3255C174.14 21.7775 172.412 20.1019 172.412 17.2988C172.412 15.697 172.939 14.4745 173.993 13.6315C175.047 12.7884 176.554 12.3669 178.514 12.3669H179.715C181.528 12.3669 182.982 12.7779 184.078 13.5999C185.174 14.4008 185.722 15.4651 185.722 16.7929H182.529C182.529 16.266 182.265 15.8445 181.738 15.5283C181.233 15.2122 180.537 15.0541 179.652 15.0541H178.45C177.481 15.0541 176.743 15.2543 176.237 15.6548C175.732 16.0342 175.479 16.5822 175.479 17.2988C175.479 18.5212 176.343 19.2694 178.071 19.5434L180.442 19.9228C182.339 20.2178 183.73 20.7764 184.615 21.5983C185.501 22.3992 185.943 23.5584 185.943 25.0759C185.943 26.6988 185.406 27.9739 184.331 28.9013C183.277 29.8076 181.696 30.2607 179.589 30.2607H178.261ZM197.849 30.2607C196.016 30.2607 194.509 29.8392 193.329 28.9961C192.169 28.1531 191.59 27.0044 191.59 25.5502H194.783C194.783 26.2035 195.067 26.7094 195.636 27.0677C196.227 27.4049 196.985 27.5735 197.913 27.5735H199.24C200.336 27.5735 201.148 27.3627 201.675 26.9412C202.202 26.4986 202.465 25.919 202.465 25.2024C202.465 24.4858 202.212 23.9273 201.706 23.5268C201.201 23.1264 200.484 22.8418 199.557 22.6732L197.186 22.3255C193.729 21.7775 192.001 20.1019 192.001 17.2988C192.001 15.697 192.528 14.4745 193.581 13.6315C194.635 12.7884 196.142 12.3669 198.102 12.3669H199.304C201.116 12.3669 202.571 12.7779 203.667 13.5999C204.763 14.4008 205.31 15.4651 205.31 16.7929H202.117C202.117 16.266 201.854 15.8445 201.327 15.5283C200.821 15.2122 200.126 15.0541 199.24 15.0541H198.039C197.07 15.0541 196.332 15.2543 195.826 15.6548C195.32 16.0342 195.067 16.5822 195.067 17.2988C195.067 18.5212 195.932 19.2694 197.66 19.5434L200.031 19.9228C201.928 20.2178 203.319 20.7764 204.204 21.5983C205.089 22.3992 205.532 23.5584 205.532 25.0759C205.532 26.6988 204.994 27.9739 203.919 28.9013C202.866 29.8076 201.285 30.2607 199.177 30.2607H197.849ZM237.691 30.324C236.194 30.324 234.888 30.0605 233.771 29.5336C232.653 29.0067 231.789 28.269 231.178 27.3206C230.567 26.3511 230.261 25.2129 230.261 23.9062H233.391C233.391 25.0022 233.781 25.8874 234.561 26.5618C235.362 27.2152 236.416 27.5419 237.722 27.5419C238.987 27.5419 239.988 27.2152 240.726 26.5618C241.463 25.8874 241.832 25.0022 241.832 23.9062C241.832 23.0421 241.6 22.2833 241.137 21.63C240.673 20.9555 240.041 20.5024 239.24 20.2705L235.984 19.2905C234.361 18.8057 233.096 17.9943 232.19 16.8562C231.305 15.718 230.862 14.3797 230.862 12.8411C230.862 10.9442 231.484 9.43727 232.727 8.32022C233.971 7.1821 235.646 6.61304 237.754 6.61304C239.84 6.61304 241.506 7.1821 242.749 8.32022C243.993 9.43727 244.614 10.9337 244.614 12.8095H241.484C241.484 11.7767 241.147 10.9442 240.473 10.3119C239.798 9.67965 238.892 9.3635 237.754 9.3635C236.595 9.3635 235.667 9.67965 234.972 10.3119C234.276 10.9232 233.929 11.7451 233.929 12.7779C233.929 13.5999 234.16 14.3059 234.624 14.8961C235.109 15.4862 235.773 15.9077 236.616 16.1606L239.967 17.2039C241.506 17.6887 242.717 18.5212 243.603 19.7015C244.488 20.8817 244.93 22.2728 244.93 23.8746C244.93 25.1813 244.625 26.3194 244.014 27.289C243.423 28.2585 242.591 29.0067 241.516 29.5336C240.441 30.0605 239.166 30.324 237.691 30.324ZM255.572 30.324C253.739 30.324 252.295 29.8603 251.241 28.9329C250.208 27.9845 249.692 26.7094 249.692 25.1076C249.692 23.4636 250.229 22.1779 251.304 21.2506C252.4 20.3021 253.886 19.8279 255.762 19.8279H260.82V18.184C260.82 17.1723 260.504 16.3925 259.872 15.8445C259.261 15.2754 258.407 14.9909 257.311 14.9909C256.32 14.9909 255.488 15.2122 254.813 15.6548C254.16 16.0763 253.76 16.6349 253.612 17.3304H250.545C250.63 16.3187 250.978 15.444 251.589 14.7064C252.2 13.9476 253.001 13.3575 253.991 12.9359C254.982 12.5144 256.099 12.3037 257.343 12.3037C259.366 12.3037 260.968 12.8306 262.148 13.8844C263.349 14.9171 263.95 16.3187 263.95 18.0891V30.0078H260.883V26.7831H260.852C260.704 27.8791 260.156 28.7432 259.208 29.3755C258.259 30.0078 257.048 30.324 255.572 30.324ZM256.426 27.8896C257.69 27.8896 258.734 27.5735 259.556 26.9412C260.399 26.2878 260.82 25.4553 260.82 24.4436V22.0726H255.825C254.898 22.0726 254.16 22.3255 253.612 22.8313C253.085 23.3371 252.822 24.0221 252.822 24.8863C252.822 25.8347 253.138 26.5724 253.77 27.0993C254.402 27.6262 255.288 27.8896 256.426 27.8896ZM274.75 30.0078L268.743 12.6198H271.968L275.888 24.0327C276.12 24.7071 276.31 25.371 276.457 26.0244C276.626 26.6777 276.752 27.1836 276.836 27.5419C276.942 27.1836 277.068 26.6777 277.216 26.0244C277.363 25.371 277.553 24.7071 277.785 24.0327L281.579 12.6198H284.835L278.797 30.0078H274.75ZM296.362 30.324C294.971 30.324 293.748 30.05 292.695 29.502C291.662 28.9329 290.861 28.1531 290.292 27.1625C289.723 26.1508 289.438 24.9706 289.438 23.6217V18.9743C289.438 17.6465 289.723 16.4873 290.292 15.4967C290.861 14.4851 291.662 13.7052 292.695 13.1572C293.748 12.5882 294.971 12.3037 296.362 12.3037C297.753 12.3037 298.965 12.5882 299.998 13.1572C301.051 13.7052 301.863 14.4851 302.432 15.4967C303.001 16.4873 303.286 17.6465 303.286 18.9743V22.0726H292.505V23.6217C292.505 24.9706 292.832 25.9928 293.485 26.6883C294.159 27.3838 295.118 27.7316 296.362 27.7316C297.416 27.7316 298.259 27.5524 298.891 27.1941C299.523 26.8147 299.924 26.2562 300.092 25.5185H303.191C302.98 26.9939 302.242 28.1636 300.978 29.0278C299.734 29.8919 298.196 30.324 296.362 30.324ZM292.505 18.9743V19.8279H300.251V18.9743C300.251 17.6465 299.913 16.6349 299.239 15.9393C298.585 15.2227 297.627 14.8644 296.362 14.8644C295.097 14.8644 294.138 15.2227 293.485 15.9393C292.832 16.6349 292.505 17.6465 292.505 18.9743ZM314.812 30.324C313.063 30.324 311.662 29.7444 310.608 28.5852C309.554 27.4049 309.027 25.8136 309.027 23.8114V18.8163C309.027 16.814 309.554 15.2333 310.608 14.0741C311.662 12.8938 313.063 12.3037 314.812 12.3037C316.077 12.3037 317.12 12.6303 317.942 13.2837C318.785 13.916 319.312 14.7801 319.523 15.8761H319.586L319.523 11.9243V6.92918H322.653V30.0078H319.555V26.7199H319.523C319.312 27.858 318.785 28.7432 317.942 29.3755C317.12 30.0078 316.077 30.324 314.812 30.324ZM315.887 27.6051C317.004 27.6051 317.89 27.2573 318.543 26.5618C319.196 25.8663 319.523 24.8863 319.523 23.6217V19.0059C319.523 17.7414 319.196 16.7613 318.543 16.0658C317.89 15.3703 317.004 15.0225 315.887 15.0225C314.728 15.0225 313.811 15.3703 313.137 16.0658C312.484 16.7402 312.157 17.7097 312.157 18.9743V23.6217C312.157 24.9073 312.484 25.8979 313.137 26.5934C313.811 27.2679 314.728 27.6051 315.887 27.6051Z" fill="#1E1E1E"/>
</svg>
