<svg width="16" height="16" viewBox="0 0 16 16" fill="none" xmlns="http://www.w3.org/2000/svg">
<path d="M8.14037 0.366998C7.93555 0.36894 7.73995 0.452723 7.59668 0.599758C7.45342 0.746769 7.37426 0.944978 7.37666 1.15072L7.37666 7.34936C7.37666 7.77765 7.72229 8.12474 8.14865 8.12474C8.57501 8.12474 8.92065 7.77765 8.92065 7.34936L8.92065 1.15072C8.92308 0.94216 8.84165 0.741417 8.6948 0.593814C8.54793 0.446377 8.34805 0.364512 8.14037 0.366998ZM12.6398 1.92087C12.6147 1.92018 12.5895 1.92058 12.5645 1.92234C12.2526 1.94884 11.9876 2.16218 11.8938 2.46205C11.8 2.76201 11.896 3.08919 12.1367 3.29005C13.4726 4.42962 14.3178 6.12565 14.3178 8.03021C14.3179 11.4692 11.5686 14.241 8.15244 14.241C4.7363 14.241 1.981 11.4692 1.981 8.03021C1.981 6.13675 2.81546 4.45212 4.13807 3.31274C4.46212 3.03494 4.50055 2.54583 4.22394 2.22043C3.94733 1.89496 3.46042 1.85634 3.13637 2.13414C1.48533 3.55641 0.437018 5.67637 0.437012 8.03021C0.437005 12.305 3.9013 15.7903 8.15246 15.7903C12.4036 15.7903 15.8604 12.3052 15.8604 8.03021C15.8603 5.66276 14.8017 3.53399 13.1339 2.11145C12.9967 1.99141 12.8217 1.92373 12.6398 1.92077L12.6398 1.92087Z" fill="white" fill-opacity="0.87"/>
</svg>
