<svg xmlns="http://www.w3.org/2000/svg" width="19.876" height="19.876" viewBox="0 0 19.876 19.876">
  <g id="noun_shut_down_3334222" data-name="noun_shut down_3334222" transform="translate(-0.529 -0.529)">
    <g id="Group_1047" data-name="Group 1047" transform="translate(0.529 0.529)">
      <path id="Path_2598" data-name="Path 2598" d="M10.456,291.179a1,1,0,0,0-.984,1.01v7.988a.995.995,0,1,0,1.99,0v-7.988a1,1,0,0,0-1.006-1.01Zm5.8,2c-.032,0-.065,0-.1,0a1,1,0,0,0-.551,1.763,7.951,7.951,0,1,1-10.308.029,1,1,0,0,0,.111-1.408.991.991,0,0,0-1.4-.111,10.012,10.012,0,0,0,6.464,17.6,10.012,10.012,0,0,0,6.42-17.628.991.991,0,0,0-.637-.246Z" transform="translate(-0.529 -291.179)"/>
    </g>
  </g>
</svg>
