<svg width="79" height="79" viewBox="0 0 79 79" fill="none" xmlns="http://www.w3.org/2000/svg">
<circle opacity="0.1" cx="39.7172" cy="39.7482" r="38.9144" fill="#FF993F"/>
<path d="M24.8379 23.7246C24.8379 22.6711 25.692 21.817 26.7455 21.817H49.6363C50.6898 21.817 51.5439 22.6711 51.5439 23.7246V52.7197C51.5439 53.7732 50.6898 54.6272 49.6363 54.6272H26.7455C25.6919 54.6272 24.8379 53.7732 24.8379 52.7197V23.7246Z" fill="#121212" stroke="#FF993F" stroke-width="2.28908"/>
<path d="M30.9421 28.3027C30.9421 27.2492 31.7962 26.3952 32.8497 26.3952H52.6884C53.742 26.3952 54.596 27.2492 54.596 28.3027V55.7717C54.596 56.8252 53.742 57.6793 52.6884 57.6793H32.8497C31.7962 57.6793 30.9421 56.8252 30.9421 55.7717V28.3027Z" fill="#121212" stroke="#FF993F" stroke-width="2.28908"/>
</svg>
