<svg width="60" height="60" viewBox="0 0 60 60" fill="none" xmlns="http://www.w3.org/2000/svg">
<circle cx="30.391" cy="30.0478" r="29.4944" fill="#FC5D73" fill-opacity="0.15"/>
<path d="M40.76 16.6595C40.651 16.6062 40.5291 16.5847 40.4084 16.5977C40.2877 16.6106 40.1732 16.6574 40.0779 16.7326C38.5673 18.0118 36.6876 18.775 34.7129 18.9111C33.4878 18.9262 32.2794 18.6258 31.2039 18.0389C30.0834 17.5106 28.9134 17.0944 27.711 16.7962C26.1151 16.308 24.4088 16.3146 22.8167 16.8152V15.1594C22.8167 15.0278 22.7644 14.9015 22.6713 14.8084C22.5782 14.7153 22.452 14.663 22.3203 14.663C22.1887 14.663 22.0624 14.7153 21.9693 14.8084C21.8763 14.9015 21.824 15.0278 21.824 15.1594V44.4396H20.155C20.0234 44.4396 19.8971 44.4919 19.804 44.585C19.7109 44.6781 19.6586 44.8043 19.6586 44.936C19.6586 45.0676 19.7109 45.1939 19.804 45.2869C19.8971 45.38 20.0234 45.4323 20.155 45.4323H24.6034C24.735 45.4323 24.8613 45.38 24.9543 45.2869C25.0474 45.1939 25.0997 45.0676 25.0997 44.936C25.0997 44.8043 25.0474 44.6781 24.9543 44.585C24.8613 44.4919 24.735 44.4396 24.6034 44.4396H22.8131V30.3437C24.5595 29.4051 25.1487 29.1916 26.3732 29.2786C27.7946 29.3989 29.1969 29.6863 30.5511 30.1347C32.0145 30.6342 33.5438 30.9143 35.0893 30.9659H35.3255C37.1697 30.9571 38.9962 30.6043 40.711 29.9256C40.8329 29.8787 40.9376 29.7958 41.0113 29.6879C41.0849 29.5801 41.124 29.4524 41.1233 29.3218V17.2414C41.1238 17.12 41.09 17.0009 41.0257 16.898C40.9614 16.795 40.8693 16.7123 40.76 16.6595ZM40.1306 29.0871C38.5259 29.6949 36.8212 29.9957 35.1054 29.9738C33.6503 29.9247 32.2106 29.6586 30.834 29.1843C29.4114 28.7117 27.9374 28.411 26.4434 28.2888C25.164 28.193 23.8886 28.52 22.8131 29.2194V17.873C24.3105 17.3154 25.9515 17.2745 27.4749 17.7568C28.6183 18.0427 29.7309 18.4401 30.7967 18.9432C32.0104 19.5911 33.3687 19.9203 34.7443 19.9002C36.6949 19.7882 38.5688 19.1015 40.1298 17.9264L40.1306 29.0871Z" fill="#FC5D73" stroke="#FC5D73" stroke-width="0.858587"/>
</svg>
