<svg xmlns="http://www.w3.org/2000/svg" width="30.361" height="43.09" viewBox="0 0 30.361 43.09">
  <path id="Path_7700" data-name="Path 7700" d="M111.865,10.731a.881.881,0,0,0-.933.1,12.708,12.708,0,0,1-7.339,2.98,9.769,9.769,0,0,1-4.8-1.193,25.72,25.72,0,0,0-4.778-1.7,11.3,11.3,0,0,0-6.695.026V8.679a.679.679,0,0,0-1.358,0V48.732H83.679a.679.679,0,1,0,0,1.358h6.085a.679.679,0,0,0,0-1.358H87.315V29.45c2.389-1.284,3.195-1.576,4.87-1.457A24.846,24.846,0,0,1,97.9,29.164a21.426,21.426,0,0,0,6.208,1.137h.323a20.28,20.28,0,0,0,7.367-1.423.88.88,0,0,0,.564-.826V11.527A.88.88,0,0,0,111.865,10.731Zm-.861,17a18.732,18.732,0,0,1-6.874,1.213,20.014,20.014,0,0,1-5.843-1.08,25.689,25.689,0,0,0-6.006-1.225,8.012,8.012,0,0,0-4.966,1.273V12.391a9.8,9.8,0,0,1,6.377-.159,24.665,24.665,0,0,1,4.544,1.623,11.122,11.122,0,0,0,5.4,1.309,13.539,13.539,0,0,0,7.367-2.7Z" transform="translate(-82.5 -7.5)" fill="#fc5d73" stroke="#fc5d73" stroke-width="1"/>
</svg>
